<svg width="28" height="28" viewBox="0 0 28 28" fill="none" xmlns="http://www.w3.org/2000/svg">
<g opacity="0.5">
<path d="M19.8333 3.49999H24.5C24.8094 3.49999 25.1062 3.62291 25.325 3.8417C25.5437 4.06049 25.6667 4.35724 25.6667 4.66666V23.3333C25.6667 23.6427 25.5437 23.9395 25.325 24.1583C25.1062 24.3771 24.8094 24.5 24.5 24.5H3.49999C3.19058 24.5 2.89383 24.3771 2.67504 24.1583C2.45624 23.9395 2.33333 23.6427 2.33333 23.3333V4.66666C2.33333 4.35724 2.45624 4.06049 2.67504 3.8417C2.89383 3.62291 3.19058 3.49999 3.49999 3.49999H8.16666V1.16666H10.5V3.49999H17.5V1.16666H19.8333V3.49999ZM17.5 5.83332H10.5V8.16666H8.16666V5.83332H4.66666V10.5H23.3333V5.83332H19.8333V8.16666H17.5V5.83332ZM23.3333 12.8333H4.66666V22.1667H23.3333V12.8333Z" fill="#E7E7F2"/>
</g>
</svg>
