<svg width="20" height="25" viewBox="0 0 20 25" fill="none" xmlns="http://www.w3.org/2000/svg">
<path d="M19.3333 24.6667H17V22.3333C17 21.4051 16.6313 20.5148 15.9749 19.8584C15.3185 19.2021 14.4283 18.8333 13.5 18.8333H6.5C5.57175 18.8333 4.68151 19.2021 4.02513 19.8584C3.36875 20.5148 3 21.4051 3 22.3333V24.6667H0.666672V22.3333C0.666672 20.7862 1.28125 19.3025 2.37522 18.2085C3.46918 17.1146 4.95291 16.5 6.5 16.5H13.5C15.0471 16.5 16.5308 17.1146 17.6248 18.2085C18.7188 19.3025 19.3333 20.7862 19.3333 22.3333V24.6667ZM10 14.1667C9.08075 14.1667 8.1705 13.9856 7.32122 13.6338C6.47194 13.282 5.70027 12.7664 5.05026 12.1164C4.40025 11.4664 3.88463 10.6947 3.53285 9.84544C3.18107 8.99616 3 8.08591 3 7.16666C3 6.2474 3.18107 5.33715 3.53285 4.48787C3.88463 3.63859 4.40025 2.86692 5.05026 2.21691C5.70027 1.5669 6.47194 1.05128 7.32122 0.6995C8.1705 0.347717 9.08075 0.166656 10 0.166656C11.8565 0.166657 13.637 0.904154 14.9498 2.21691C16.2625 3.52966 17 5.31014 17 7.16666C17 9.02317 16.2625 10.8036 14.9498 12.1164C13.637 13.4292 11.8565 14.1667 10 14.1667ZM10 11.8333C11.2377 11.8333 12.4247 11.3417 13.2998 10.4665C14.175 9.59132 14.6667 8.40433 14.6667 7.16666C14.6667 5.92898 14.175 4.74199 13.2998 3.86682C12.4247 2.99166 11.2377 2.49999 10 2.49999C8.76233 2.49999 7.57534 2.99166 6.70017 3.86682C5.825 4.74199 5.33334 5.92898 5.33334 7.16666C5.33334 8.40433 5.825 9.59132 6.70017 10.4665C7.57534 11.3417 8.76233 11.8333 10 11.8333Z" fill="#E7E7F2"/>
</svg>
